HIERARCHY
ROOT Hips
{
    OFFSET 0.000000 0.000000 0.000000
    CHANNELS 6 Xposition Yposition Zposition Zrotation Xrotation Yrotation
    JOINT Spine
    {
        OFFSET -0.000008 7.848626 0.000026
        CHANNELS 3 Zrotation Xrotation Yrotation
        JOINT Spine1
        {
            OFFSET 0.000013 20.903070 -0.000033
            CHANNELS 3 Zrotation Xrotation Yrotation
            JOINT Neck
            {
                OFFSET 0.000003 22.292706 -0.000011
                CHANNELS 3 Zrotation Xrotation Yrotation
                JOINT Head
                {
                    OFFSET 0.000001 14.279130 1.902220
                    CHANNELS 3 Zrotation Xrotation Yrotation
                    End Site
                    {
                        OFFSET 0.000000 19.022141 0.000000
                    }
                }
            }
            JOINT LeftShoulder
            {
                OFFSET 3.797834 16.121201 -0.677306
                CHANNELS 3 Zrotation Xrotation Yrotation
                JOINT LeftArm
                {
                    OFFSET 11.576589 -0.000004 -0.000014
                    CHANNELS 3 Zrotation Xrotation Yrotation
                    JOINT LeftForeArm
                    {
                        OFFSET 29.906410 0.000012 0.000004
                        CHANNELS 3 Zrotation Xrotation Yrotation
                        JOINT LeftHand
                        {
                            OFFSET 24.318316 0.000004 0.000004
                            CHANNELS 3 Zrotation Xrotation Yrotation
                            JOINT LeftHandThumb1
                            {
                                OFFSET 1.987815 -2.258876 3.162452
                                CHANNELS 3 Zrotation Xrotation Yrotation
                                JOINT LeftHandThumb2
                                {
                                    OFFSET 3.002299 0.000005 0.000005
                                    CHANNELS 3 Zrotation Xrotation Yrotation
                                    JOINT LeftHandThumb3
                                    {
                                        OFFSET 2.566085 0.000018 0.000012
                                        CHANNELS 3 Zrotation Xrotation Yrotation
                                        End Site
                                        {
                                            OFFSET 2.440626 0.000000 0.000000
                                        }
                                    }
                                }
                            }
                            JOINT LeftHandIndex1
                            {
                                OFFSET 8.131962 0.000001 3.162428
                                CHANNELS 3 Zrotation Xrotation Yrotation
                                JOINT LeftHandIndex2
                                {
                                    OFFSET 4.517756 -0.000002 -0.000008
                                    CHANNELS 3 Zrotation Xrotation Yrotation
                                    JOINT LeftHandIndex3
                                    {
                                        OFFSET 2.258878 0.000006 0.000019
                                        CHANNELS 3 Zrotation Xrotation Yrotation
                                        End Site
                                        {
                                            OFFSET 2.148437 0.000000 0.000000
                                        }
                                    }
                                }
                            }
                            JOINT LeftHandMiddle1
                            {
                                OFFSET 8.131961 0.000003 1.048141
                                CHANNELS 3 Zrotation Xrotation Yrotation
                                JOINT LeftHandMiddle2
                                {
                                    OFFSET 4.969536 -0.000001 -0.000014
                                    CHANNELS 3 Zrotation Xrotation Yrotation
                                    JOINT LeftHandMiddle3
                                    {
                                        OFFSET 2.710657 0.000001 0.000014
                                        CHANNELS 3 Zrotation Xrotation Yrotation
                                        End Site
                                        {
                                            OFFSET 2.578118 0.000000 0.000000
                                        }
                                    }
                                }
                            }
                            JOINT LeftHandRing1
                            {
                                OFFSET 7.680184 0.000003 -1.048099
                                CHANNELS 3 Zrotation Xrotation Yrotation
                                JOINT LeftHandRing2
                                {
                                    OFFSET 4.517756 -0.000001 -0.000008
                                    CHANNELS 3 Zrotation Xrotation Yrotation
                                    JOINT LeftHandRing3
                                    {
                                        OFFSET 2.258878 0.000002 0.000020
                                        CHANNELS 3 Zrotation Xrotation Yrotation
                                        End Site
                                        {
                                            OFFSET 2.148437 0.000000 0.000000
                                        }
                                    }
                                }
                            }
                            JOINT LeftHandPinky1
                            {
                                OFFSET 7.228410 0.000000 -3.162428
                                CHANNELS 3 Zrotation Xrotation Yrotation
                                JOINT LeftHandPinky2
                                {
                                    OFFSET 3.614204 0.000001 0.000003
                                    CHANNELS 3 Zrotation Xrotation Yrotation
                                    JOINT LeftHandPinky3
                                    {
                                        OFFSET 1.807105 0.000001 -0.000022
                                        CHANNELS 3 Zrotation Xrotation Yrotation
                                        End Site
                                        {
                                            OFFSET 1.718745 0.000000 0.000000
                                        }
                                    }
                                }
                            }
                        }
                    }
                }
            }
            JOINT RightShoulder
            {
                OFFSET -3.797835 16.121204 -0.677282
                CHANNELS 3 Zrotation Xrotation Yrotation
                JOINT RightArm
                {
                    OFFSET -11.576581 -0.000004 -0.000002
                    CHANNELS 3 Zrotation Xrotation Yrotation
                    JOINT RightForeArm
                    {
                        OFFSET -29.906410 0.000012 0.000015
                        CHANNELS 3 Zrotation Xrotation Yrotation
                        JOINT RightHand
                        {
                            OFFSET -24.318323 0.000011 0.000001
                            CHANNELS 3 Zrotation Xrotation Yrotation
                            JOINT RightHandThumb1
                            {
                                OFFSET -1.987803 -2.258880 3.162433
                                CHANNELS 3 Zrotation Xrotation Yrotation
                                JOINT RightHandThumb2
                                {
                                    OFFSET -3.002280 0.000010 0.000002
                                    CHANNELS 3 Zrotation Xrotation Yrotation
                                    JOINT RightHandThumb3
                                    {
                                        OFFSET -2.566098 -0.000006 0.000001
                                        CHANNELS 3 Zrotation Xrotation Yrotation
                                        End Site
                                        {
                                            OFFSET -2.440626 0.000000 0.000000
                                        }
                                    }
                                }
                            }
                            JOINT RightHandIndex1
                            {
                                OFFSET -8.131983 -0.000002 3.162433
                                CHANNELS 3 Zrotation Xrotation Yrotation
                                JOINT RightHandIndex2
                                {
                                    OFFSET -4.517781 -0.000002 -0.000004
                                    CHANNELS 3 Zrotation Xrotation Yrotation
                                    JOINT RightHandIndex3
                                    {
                                        OFFSET -2.258867 -0.000001 0.000000
                                        CHANNELS 3 Zrotation Xrotation Yrotation
                                        End Site
                                        {
                                            OFFSET -2.148437 0.000000 0.000000
                                        }
                                    }
                                }
                            }
                            JOINT RightHandMiddle1
                            {
                                OFFSET -8.131975 -0.000004 1.048119
                                CHANNELS 3 Zrotation Xrotation Yrotation
                                JOINT RightHandMiddle2
                                {
                                    OFFSET -4.969537 0.000003 0.000004
                                    CHANNELS 3 Zrotation Xrotation Yrotation
                                    JOINT RightHandMiddle3
                                    {
                                        OFFSET -2.710670 0.000003 0.000004
                                        CHANNELS 3 Zrotation Xrotation Yrotation
                                        End Site
                                        {
                                            OFFSET -2.578118 0.000000 0.000000
                                        }
                                    }
                                }
                            }
                            JOINT RightHandRing1
                            {
                                OFFSET -7.680190 -0.000004 -1.048120
                                CHANNELS 3 Zrotation Xrotation Yrotation
                                JOINT RightHandRing2
                                {
                                    OFFSET -4.517781 -0.000002 -0.000003
                                    CHANNELS 3 Zrotation Xrotation Yrotation
                                    JOINT RightHandRing3
                                    {
                                        OFFSET -2.258867 -0.000000 0.000000
                                        CHANNELS 3 Zrotation Xrotation Yrotation
                                        End Site
                                        {
                                            OFFSET -2.148437 0.000000 0.000000
                                        }
                                    }
                                }
                            }
                            JOINT RightHandPinky1
                            {
                                OFFSET -7.228427 -0.000003 -3.162433
                                CHANNELS 3 Zrotation Xrotation Yrotation
                                JOINT RightHandPinky2
                                {
                                    OFFSET -3.614225 -0.000003 -0.000004
                                    CHANNELS 3 Zrotation Xrotation Yrotation
                                    JOINT RightHandPinky3
                                    {
                                        OFFSET -1.807113 0.000001 0.000003
                                        CHANNELS 3 Zrotation Xrotation Yrotation
                                        End Site
                                        {
                                            OFFSET -1.718745 0.000000 0.000000
                                        }
                                    }
                                }
                            }
                        }
                    }
                }
            }
        }
    }
    JOINT LeftUpLeg
    {
        OFFSET 9.511071 0.000001 -0.000012
        CHANNELS 3 Zrotation Xrotation Yrotation
        JOINT LeftLeg
        {
            OFFSET 0.000005 -43.875633 -0.000009
            CHANNELS 3 Zrotation Xrotation Yrotation
            JOINT LeftFoot
            {
                OFFSET 0.000003 -35.354156 -0.000004
                CHANNELS 3 Zrotation Xrotation Yrotation
                JOINT LeftToeBase
                {
                    OFFSET -0.000001 -6.182192 14.266607
                    CHANNELS 3 Zrotation Xrotation Yrotation
                    End Site
                    {
                        OFFSET 0.000000 0.000000 3.804428
                    }
                }
            }
        }
    }
    JOINT RightUpLeg
    {
        OFFSET -9.511071 -0.000001 0.000012
        CHANNELS 3 Zrotation Xrotation Yrotation
        JOINT RightLeg
        {
            OFFSET 0.000000 -43.875633 -0.000009
            CHANNELS 3 Zrotation Xrotation Yrotation
            JOINT RightFoot
            {
                OFFSET 0.000001 -35.354160 -0.000016
                CHANNELS 3 Zrotation Xrotation Yrotation
                JOINT RightToeBase
                {
                    OFFSET -0.000000 -6.182191 14.266625
                    CHANNELS 3 Zrotation Xrotation Yrotation
                    End Site
                    {
                        OFFSET 0.000000 0.000000 3.804428
                    }
                }
            }
        }
    }
}
MOTION
Frames:    4
Frame Time:    0.002778
32.896179    92.461357    587.244446    4.283734    -4.882421    -155.277206    -0.179388    3.761855    2.475659    -0.896936    3.761412    2.522738    4.309900    11.719965    -18.701279    4.309900    11.719968    -18.701279    3.200059    -1.819918    1.406020    -38.924797    0.743040    -59.190704    -34.762157    -45.113094    -43.823860    -8.480924    -0.818558    1.787332    47.448204    38.866428    -34.355030    -35.000008    0.000003    0.000002    -0.000000    0.000000    -0.000000    -0.000003    9.999993    -0.000003    -0.000000    0.000000    -0.000000    -0.000000    0.000000    -0.000000    -0.000000    0.000000    -0.000000    -0.000000    0.000000    -0.000000    -0.000000    0.000000    -0.000000    -0.000000    0.000000    -0.000000    -0.000000    0.000000    -0.000000    -0.000000    0.000000    -0.000000    -0.000010    -10.000001    0.000006    -0.000000    0.000000    -0.000000    -0.000000    0.000000    -0.000000    -5.393361    -1.488006    1.887167    43.952583    3.391120    44.922058    3.779348    16.454914    59.887741    -59.424587    12.749402    -7.370362    -47.448215    38.866428    34.355030    34.999996    -0.000000    -0.000008    -0.000000    0.000000    -0.000000    -0.000006    9.999995    -0.000004    -0.000000    0.000000    -0.000000    -0.000000    0.000000    -0.000000    -0.000000    0.000000    -0.000000    -0.000000    0.000000    -0.000000    -0.000000    0.000000    -0.000000    -0.000000    0.000000    -0.000000    -0.000000    0.000000    -0.000000    -0.000000    0.000000    -0.000000    -0.000001    -10.000007    0.000008    -0.000000    0.000000    -0.000000    -0.000000    0.000000    -0.000000    15.945974    -18.349037    -1.329342    0.000003    24.752413    -0.000004    -7.966147    -10.319261    -0.617151    0.000001    0.972049    0.000003    -12.731606    -13.731620    -1.150972    0.000002    27.955421    -0.000001    15.392545    -13.012053    -18.562515    0.000000    -2.323854    -0.000000    
32.908611    92.462074    587.270142    4.291986    -4.889459    -155.257568    -0.179433    3.774565    2.535484    -0.897167    3.774120    2.582733    4.321015    11.754846    -18.748173    4.321014    11.754848    -18.748171    3.215081    -1.861844    1.442016    -38.943336    1.061585    -58.908791    -34.698158    -45.162674    -43.721127    -8.910975    -0.832491    1.784271    47.448212    38.866428    -34.355030    -34.999992    -0.000002    -0.000004    -0.000000    0.000000    -0.000000    0.000000    10.000005    -0.000003    -0.000000    0.000000    -0.000000    -0.000000    0.000000    -0.000000    -0.000000    0.000000    -0.000000    -0.000000    0.000000    -0.000000    -0.000000    0.000000    -0.000000    -0.000000    0.000000    -0.000000    -0.000000    0.000000    -0.000000    -0.000000    0.000000    -0.000000    -0.000006    -9.999998    -0.000024    -0.000000    0.000000    -0.000000    -0.000000    0.000000    -0.000000    -5.484009    -1.365467    1.727031    43.778938    3.843523    45.658020    3.297419    16.057194    58.022430    -59.783497    12.667938    -7.211867    -47.448215    38.866432    34.355042    35.000000    -0.000005    0.000002    -0.000000    0.000000    -0.000000    0.000005    10.000004    0.000003    -0.000000    0.000000    -0.000000    -0.000000    0.000000    -0.000000    -0.000000    0.000000    -0.000000    -0.000000    0.000000    -0.000000    -0.000000    0.000000    -0.000000    -0.000000    0.000000    -0.000000    -0.000000    0.000000    -0.000000    -0.000000    0.000000    -0.000000    0.000006    -10.000002    0.000007    -0.000000    0.000000    -0.000000    -0.000000    0.000000    -0.000000    15.953774    -18.376642    -1.311523    0.000000    24.729893    -0.000001    -7.951246    -10.277845    -0.639907    -0.000000    0.952787    0.000001    -12.729868    -13.767397    -1.158880    0.000000    27.977804    -0.000000    15.394688    -12.999554    -18.576887    -0.000000    -2.324655    0.000000    
32.915928    92.461082    587.301025    4.298361    -4.899435    -155.234573    -0.178328    3.788564    2.600084    -0.891638    3.788125    2.647217    4.332050    11.784401    -18.809019    4.332052    11.784399    -18.809019    3.231010    -1.895216    1.477096    -38.965919    1.362167    -58.649822    -34.503204    -45.192894    -43.514355    -9.274786    -0.842904    1.778068    47.448208    38.866428    -34.355030    -35.000000    -0.000004    0.000001    -0.000000    0.000000    -0.000000    -0.000003    9.999998    -0.000003    -0.000000    0.000000    -0.000000    -0.000000    0.000000    -0.000000    -0.000000    0.000000    -0.000000    -0.000000    0.000000    -0.000000    -0.000000    0.000000    -0.000000    -0.000000    0.000000    -0.000000    -0.000000    0.000000    -0.000000    -0.000000    0.000000    -0.000000    0.000005    -10.000000    0.000014    -0.000000    0.000000    -0.000000    -0.000000    0.000000    -0.000000    -5.572692    -1.260159    1.599179    43.588413    4.235558    46.341228    2.897701    15.689403    56.157406    -59.988335    12.608450    -7.112644    -47.448215    38.866413    34.355030    35.000008    0.000001    0.000002    -0.000000    0.000000    -0.000000    -0.000002    10.000004    -0.000009    -0.000000    0.000000    -0.000000    -0.000000    0.000000    -0.000000    -0.000000    0.000000    -0.000000    -0.000000    0.000000    -0.000000    -0.000000    0.000000    -0.000000    -0.000000    0.000000    -0.000000    -0.000000    0.000000    -0.000000    -0.000000    0.000000    -0.000000    0.000002    -10.000002    -0.000001    -0.000000    0.000000    -0.000000    -0.000000    0.000000    -0.000000    15.950800    -18.411451    -1.308811    0.000001    24.712809    0.000003    -7.946794    -10.246854    -0.659267    0.000000    0.938626    0.000002    -12.738184    -13.803944    -1.174562    0.000002    27.998005    -0.000003    15.399871    -12.985755    -18.588150    -0.000000    -2.326267    -0.000000    
32.922180    92.458549    587.333191    4.304740    -4.912218    -155.208679    -0.177905    3.800395    2.668037    -0.889525    3.799957    2.715208    4.348356    11.813861    -18.873869    4.348353    11.813862    -18.873867    3.244586    -1.910421    1.506178    -38.997154    1.674550    -58.416565    -34.397537    -45.225708    -43.353977    -9.589590    -0.857988    1.806450    47.448208    38.866432    -34.355030    -35.000008    0.000001    0.000003    -0.000000    0.000000    -0.000000    0.000007    10.000002    -0.000001    -0.000000    0.000000    -0.000000    -0.000000    0.000000    -0.000000    -0.000000    0.000000    -0.000000    -0.000000    0.000000    -0.000000    -0.000000    0.000000    -0.000000    -0.000000    0.000000    -0.000000    -0.000000    0.000000    -0.000000    -0.000000    0.000000    -0.000000    0.000009    -9.999993    0.000025    -0.000000    0.000000    -0.000000    -0.000000    0.000000    -0.000000    -5.649292    -1.169947    1.487684    43.402714    4.582189    46.986801    2.540035    15.348543    54.266449    -60.149467    12.638155    -7.076432    -47.448235    38.866447    34.355038    34.999996    -0.000005    0.000006    -0.000000    0.000000    -0.000000    -0.000003    10.000003    -0.000015    -0.000000    0.000000    -0.000000    -0.000000    0.000000    -0.000000    -0.000000    0.000000    -0.000000    -0.000000    0.000000    -0.000000    -0.000000    0.000000    -0.000000    -0.000000    0.000000    -0.000000    -0.000000    0.000000    -0.000000    -0.000000    0.000000    -0.000000    -0.000006    -10.000002    -0.000004    -0.000000    0.000000    -0.000000    -0.000000    0.000000    -0.000000    15.944531    -18.453230    -1.312274    -0.000001    24.703562    -0.000002    -7.955523    -10.227179    -0.674251    -0.000000    0.935697    -0.000001    -12.751512    -13.843864    -1.196066    -0.000001    28.022375    0.000002    15.415588    -12.977444    -18.589445    -0.000000    -2.327686    -0.000000    
